<svg width="1200" height="820" viewBox="0 0 1200 820" fill="none" xmlns="http://www.w3.org/2000/svg">
  <rect width="1200" height="820" rx="36" fill="#08090B"/>
  <rect x="56" y="58" width="1088" height="704" rx="30" fill="#101114" stroke="url(#stroke)" stroke-width="2"/>
  <rect x="88" y="96" width="1024" height="88" rx="20" fill="#1B1C21"/>
  <circle cx="130" cy="140" r="13" fill="#A855F7"/>
  <circle cx="172" cy="140" r="13" fill="#C084FC"/>
  <circle cx="214" cy="140" r="13" fill="#7C3AED"/>
  <text x="96" y="320" fill="#F5EFFF" font-family="Space Grotesk, Arial" font-size="124" font-weight="800">PRAJJWAL</text>
  <text x="104" y="376" fill="#A7B0C4" font-family="Sora, Arial" font-size="28" font-weight="600">Interactive 3D developer portfolio</text>
  <rect x="104" y="430" width="210" height="66" rx="16" fill="#E9D5FF"/>
  <rect x="338" y="430" width="210" height="66" rx="16" fill="#171A1D" stroke="#4E6A70"/>
  <circle cx="830" cy="410" r="132" fill="url(#orb)" opacity=".9"/>
  <path d="M686 410C720 330 801 275 893 289C986 304 1054 380 1060 470" stroke="#A855F7" stroke-width="3" stroke-dasharray="16 18"/>
  <path d="M705 507C787 581 917 574 1000 496" stroke="#C084FC" stroke-width="3" stroke-dasharray="12 20"/>
  <rect x="764" y="220" width="118" height="118" rx="16" fill="#A855F7" fill-opacity=".22" stroke="#A855F7" transform="rotate(14 764 220)"/>
  <rect x="915" y="518" width="96" height="96" rx="14" fill="#C084FC" fill-opacity=".24" stroke="#C084FC" transform="rotate(-18 915 518)"/>
  <defs>
    <linearGradient id="stroke" x1="56" y1="58" x2="1144" y2="762" gradientUnits="userSpaceOnUse">
      <stop stop-color="#A855F7"/>
      <stop offset=".55" stop-color="#FFFFFF" stop-opacity=".12"/>
      <stop offset="1" stop-color="#7C3AED"/>
    </linearGradient>
    <radialGradient id="orb" cx="0" cy="0" r="1" gradientUnits="userSpaceOnUse" gradientTransform="translate(790 352) rotate(50) scale(228)">
      <stop stop-color="#FFFFFF"/>
      <stop offset=".22" stop-color="#C084FC"/>
      <stop offset=".7" stop-color="#A855F7"/>
      <stop offset="1" stop-color="#14181B"/>
    </radialGradient>
  </defs>
</svg>
